 <!DOCTYPE svg PUBLIC "-//W3C//DTD SVG 1.1//EN" "http://www.w3.org/Graphics/SVG/1.1/DTD/svg11.dtd">
 <svg width="13px" xmlns="http://www.w3.org/2000/svg" xmlns:xlink="http://www.w3.org/1999/xlink" height="12px" viewBox="0 0 13 12" version="1.1">
        <g id="starss" stroke="none" stroke-width="1" fill="none" fill-rule="evenodd">
            <g id="My-TRAK-UI" transform="translate(-104.000000, -308.000000)" fill="#F6B321">
                <path d="M110.701633,318.044427 L110.298367,318.044427 L114.0475,319.950926 C114.365382,320.112575 114.736909,319.851483 114.676199,319.509106 L113.960178,315.471076 L113.835562,315.842047 L116.868674,312.982298 C117.125846,312.739825 116.983936,312.31737 116.628533,312.267418 L112.436875,311.678277 L112.763124,311.90755 L110.888557,308.233629 C110.729616,307.922124 110.270384,307.922124 110.111443,308.233629 L108.236876,311.90755 L108.563125,311.678277 L104.371467,312.267418 C104.016064,312.31737 103.874154,312.739825 104.131326,312.982298 L107.164438,315.842047 L107.039822,315.471076 L106.323801,319.509106 C106.263091,319.851483 106.634618,320.112575 106.9525,319.950926 L110.701633,318.044427 L110.701633,318.044427 Z"
                      id="star" ></path>
            </g>
        </g>
    </svg>